#!OML:ASF F:\VICON\USERDATA\INSTALL\rory3\rory3.ASF
:FULLY-SPECIFIED
:DEGREES
16
root 0.445649 18.03 -25.1666 -1.42547 -2.01129 -3.17405
lowerback 12.2406 -0.4235 1.37901
upperback 0.560597 -0.15342 3.34434
thorax -6.28091 -0.0667176 2.7764
lowerneck -15.5575 -2.52873 -1.47003
upperneck 20.1837 -3.15032 0.0201372
head 8.9134 -1.59085 -0.132517
rclavicle -1.16289e-014 1.59028e-015
rhumerus -35.9201 -30.0553 -69.2146
rradius 19.8256
rwrist 11.2544
rhand -20.5104 20.6168
rfingers 7.12502
rthumb 5.84703 -9.28251
lclavicle -1.16289e-014 1.59028e-015
lhumerus -28.0834 3.67301 82.4276
lradius 28.7417
lwrist 5.01946
lhand -27.4258 23.9258
lfingers 7.12502
lthumb -0.831298 53.904
rfemur -19.5294 5.72727 29.6294
rtibia 32.1749
rfoot -9.826 -4.81073
rtoes 13.5531
lfemur -10.9974 1.80856 -17.663
ltibia 65.2542
lfoot 9.69167 -16.7908
ltoes -1.03811
17
root 0.43319 18.0386 -24.9974 -1.52304 -2.28647 -3.45599
lowerback 12.4054 -0.553662 1.35811
upperback 0.22461 -0.293569 3.60338
thorax -6.72488 -0.127525 3.09895
lowerneck -14.0596 -2.24552 -1.93965
upperneck 19.9641 -2.70683 0.169001
head 8.57149 -1.40818 0.0690641
rclavicle -9.98893e-015 3.02153e-014
rhumerus -35.6537 -27.791 -70.0248
rradius 20.1648
rwrist 10.257
rhand -20.4683 20.2342
rfingers 7.12502
rthumb 5.88766 -9.66403
lclavicle -9.98893e-015 3.02153e-014
lhumerus -29.3728 4.62411 82.3736
lradius 28.6035
lwrist 4.38584
lhand -27.6831 24.2378
lfingers 7.12502
lthumb -1.07988 54.2148
rfemur -18.6625 5.79238 30.0689
rtibia 31.9788
rfoot -10.0883 -4.76594
rtoes 13.3087
lfemur -11.8678 2.06449 -17.1245
ltibia 66.438
lfoot 7.44689 -15.7515
ltoes -6.94953
18
root 0.425566 18.0509 -24.8264 -1.5577 -2.55929 -3.44924
lowerback 12.2497 -0.256164 1.61796
upperback 0.654522 0.0954584 3.29711
thorax -6.19528 0.0470869 2.54605
lowerneck -15.6886 -2.27699 -1.56026
upperneck 20.761 -2.88502 0.469532
head 9.1431 -1.42312 0.0622369
rclavicle 1.2921e-015 3.10104e-014
rhumerus -34.4783 -28.2915 -70.9925
rradius 20.4489
rwrist 10.0202
rhand -19.5018 20.7708
rfingers 7.12502
rthumb 6.82073 -9.09933
lclavicle 1.2921e-015 3.10104e-014
lhumerus -28.5851 3.77032 82.4667
lradius 28.2243
lwrist 4.25072
lhand -28.0612 24.3589
lfingers 7.12502
lthumb -1.44498 54.3337
rfemur -17.869 5.85827 30.1622
rtibia 31.7838
rfoot -10.2318 -4.65983
rtoes 12.7415
lfemur -12.9035 2.31984 -17.0121
ltibia 67.3927
lfoot 6.3679 -15.1369
ltoes -9.39412
19
root 0.416838 18.0806 -24.6494 -1.52319 -2.81319 -3.68199
lowerback 12.0877 -0.087364 1.98081
upperback 0.858106 0.347667 3.18478
thorax -5.89406 0.158992 2.1738
lowerneck -16.1045 -2.58689 -1.28896
upperneck 20.5048 -3.34485 0.336505
head 9.12806 -1.6298 -0.0892131
rclavicle 3.52843e-015 2.8625e-014
rhumerus -33.5401 -28.5386 -71.6098
rradius 20.4033
rwrist 10.1025
rhand -18.5429 22.0473
rfingers 7.12502
rthumb 7.74634 -7.79081
lclavicle 3.52843e-015 2.8625e-014
lhumerus -28.2795 3.53952 82.4962
lradius 27.7313
lwrist 4.30705
lhand -28.2756 23.1611
lfingers 7.12502
lthumb -1.65212 53.1344
rfemur -17.1015 6.05901 30.5075
rtibia 31.6334
rfoot -10.5412 -4.79193
rtoes 12.9247
lfemur -14.6351 2.88227 -16.7776
ltibia 68.1052
lfoot 7.39001 -14.6552
ltoes -4.0843
